<svg version="1.2" xmlns="http://www.w3.org/2000/svg" viewBox="0 0 69 70" width="69" height="70"><style>.a{fill:#daa520;stroke:#daa520;stroke-miterlimit:10}</style><path fill-rule="evenodd" class="a" d="m34.1 2.9c8.6 0.1 17.2 0.9 25.1 4.6 6.6 3.1 6.5 3 6 10.3-0.8 13.4-6.7 24.7-15.3 34.8-4.4 5.2-9.5 9.7-14.9 13.9-1 0.8-1.8 0.9-2.8 0.1-11.9-9.1-21.8-19.8-27.2-34.1-2.2-5.8-3.3-11.9-3.3-18.1 0-2.2 0.7-3.7 2.8-4.9 8.8-4.8 18.2-6.3 28-6.6 0.6 0 1.1 0 1.6 0zm-0.8 1.8c-1.8 0.1-4.3 0.1-6.8 0.4-7.4 0.8-14.6 2.4-21.2 6.2-1.1 0.6-1.5 1.4-1.6 2.7-0.2 6.7 1.2 13.1 3.7 19.3 5.3 12.8 14.3 22.7 25 31.1 1 0.8 1.6 0.4 2.4-0.2 6.7-5.2 12.7-11 17.6-17.8 6.2-8.7 10.4-18.2 11-29 0.3-5.6-0.1-6.1-5.3-8.3-7.6-3.3-15.8-4.2-24.8-4.4z"/><path fill-rule="evenodd" class="a" d="m33.3 4.7c9 0.1 17.2 1 24.9 4.3 5.2 2.2 5.6 2.7 5.3 8.3-0.6 10.8-4.8 20.3-11 29-5 6.9-11 12.7-17.6 17.9-0.8 0.6-1.5 1-2.4 0.2-10.8-8.4-19.8-18.3-25.1-31.1-2.5-6.2-4-12.6-3.7-19.3 0-1.3 0.5-2 1.6-2.7 6.6-3.7 13.7-5.4 21.2-6.2 2.5-0.3 5-0.3 6.8-0.4zm6.2 52.3c0.8-0.6 1.1-0.8 1.3-1 3-3.3 6.3-6.5 9-10.1 6.4-8.5 10.7-17.9 11.2-28.7 0.2-4.6 0.2-4.6-4.1-6.5-6.7-2.9-13.8-3.8-21-4-9.4-0.2-18.6 0.9-27.3 5.1-2.8 1.3-2.8 1.6-2.7 4.7 0.3 6.8 2.1 13.2 5.1 19.4 0.6 1.3 1.4 2.6 2.2 4.1 0.2-3.1 0.3-5.8 0.5-8.6-1 0.3-2 0.7-3.6 1.2 2.2-6.2 6.8-9.7 11.9-13.5-1.5 0.1-2.4 0.1-3.2 0.2-0.2-0.3-0.5-0.6-0.7-0.9 0.6-0.3 1.3-0.4 1.9-0.9 4.8-3.8 10.2-5.2 16.2-4.4 1.3 0.2 2.1 0 2.8-1.3 1-1.8 2.6-2.9 4.9-3.6-0.1 1-0.2 1.7-0.2 2.4 0.7-0.1 1.2-0.3 2-0.4-0.9 4.2 0.1 7.8 2.4 11 0.5 0.6 0.7 1.4 1 2.2 1.5 3.5 3 6.9 4.4 10.4 0.4 1.1 0.5 2.4 0.4 3.6-0.2 2-1.7 3.2-4 3.5-1.8 0.2-2.9-0.6-3.8-2.6-0.2-0.4-0.5-1-0.8-1.1-2.9-0.9-5.1-2.8-6.9-5.1-0.7-0.9-1.5-0.9-1.9 0-0.9 1.6-2.2 3.5-2 5.1 0.2 3 0.9 6.2 2.3 8.8 1.7 3.4 3.3 6.6 2.7 11z"/><path class="a" d=""/><path class="a" d=""/></svg>